:SAMPLES-PER-SECOND 30
:FULLY-SPECIFIED
:DEGREES
245
root  -3.7735 38.3238 28.5668 176.662 13.7223 174.855
RightUpLeg  -16.4617 -19.8521 -15.3398
RightLeg  26.5074 3.3091 1.56623
RightFoot  -3.18792 -0.371662 4.9102
RightToes  -6.98493e-010 0 -3.6325e-017
Spine  11.923 -1.33389 8.64881
Spine1  10.6522 0.710452 -4.04884
HEad  -15.3276 -18.6134 6.11675
LeftShoulder1  0.50226 2.02977 -27.9376
LeftArm  -21.9489 18.9272 -34.2531
LeftForeArm  65.6464 -78.875 -88.9398
LeftHand  -0.105879 2.53662 3.89605
RightShoulder  -0.309147 -4.46724 24.9039
RightArm  -1.32942 23.4368 46.8801
RightForeArm  14.5947 72.8983 40.4089
RightHand  -0.009078 -0.0439806 -0.205579
LeftUpLeg  -5.29454 1.74823 17.0751
LeftLeg  16.4703 1.76576 0.934969
LeftFoot  4.68757 1.04596 -7.56771
LeftToes  7.91257e-010 -1.64976e-010 -3.02228e-011
246
root  -2.84976 38.6164 28.6051 176.525 12.9162 174.688
RightUpLeg  -15.07 -20.2235 -14.267
RightLeg  25.313 2.7317 1.17773
RightFoot  -3.47505 -0.305199 4.09132
RightToes  -6.98493e-010 0 -3.6325e-017
Spine  11.8469 -1.48464 8.33082
Spine1  10.5852 0.265143 -3.09395
HEad  -15.6933 -18.7142 5.7318
LeftShoulder1  0.487047 2.0952 -28.4469
LeftArm  -21.4629 18.6672 -34.5071
LeftForeArm  63.2138 -78.8828 -85.5745
LeftHand  -0.0964022 1.98024 2.93854
RightShoulder  -0.238411 -4.26363 24.0316
RightArm  -1.64903 22.3768 46.6753
RightForeArm  14.7606 73.0292 40.8547
RightHand  -0.0251484 0.101639 -0.544327
LeftUpLeg  -6.46285 3.29809 15.1843
LeftLeg  19.5793 -0.388536 0.172877
LeftFoot  1.72186 0.688689 -6.1152
LeftToes  7.91257e-010 -1.64976e-010 -3.02228e-011
247
root  -2.05137 38.9344 28.5727 176.46 12.4111 174.038
RightUpLeg  -13.7003 -21.0629 -13.842
RightLeg  23.5809 2.82918 1.12035
RightFoot  -3.39262 -0.251368 3.30544
RightToes  -6.98493e-010 0 -3.6325e-017
Spine  11.1834 -1.58574 8.48572
Spine1  10.7436 0.284669 -3.58603
HEad  -14.5981 -18.5791 4.93954
LeftShoulder1  0.52218 1.98553 -28.2596
LeftArm  -20.3632 18.5356 -34.5862
LeftForeArm  61.8784 -78.8705 -83.7255
LeftHand  -0.0737337 2.64302 2.62649
RightShoulder  -0.278604 -4.39347 24.0711
RightArm  -2.13197 21.2523 46.0947
RightForeArm  15.0874 73.2222 41.5146
RightHand  -0.0336812 0.286768 -0.723616
LeftUpLeg  -6.94386 2.98398 11.8514
LeftLeg  21.419 -0.21086 0.236245
LeftFoot  -1.51237 0.500998 -5.74283
LeftToes  7.91257e-010 -1.64976e-010 -3.02228e-011
248
root  -1.32962 39.2742 28.5168 176.395 11.9373 173.634
RightUpLeg  -11.8566 -21.6894 -13.4096
RightLeg  21.0832 2.79591 1.12813
RightFoot  -2.90534 -0.199347 2.53549
RightToes  -6.98493e-010 0 -3.6325e-017
Spine  10.7016 -1.74219 8.91289
Spine1  10.5136 0.307979 -4.34001
HEad  -14.2593 -17.6311 4.68643
LeftShoulder1  0.506013 2.03141 -28.2392
LeftArm  -18.9395 18.1564 -34.3198
LeftForeArm  60.0485 -78.822 -82.1566
LeftHand  -0.0883548 3.02014 3.65622
RightShoulder  -0.336559 -4.56791 24.5682
RightArm  -2.50027 20.0366 45.0781
RightForeArm  16.2805 73.604 42.7805
RightHand  -0.0251136 0.170785 -0.543333
LeftUpLeg  -6.84967 1.95255 8.35301
LeftLeg  21.9687 0.351262 0.481248
LeftFoot  -4.02402 0.383575 -5.59466
LeftToes  7.91257e-010 -1.64976e-010 -3.02228e-011
249
root  -0.619106 39.5734 28.4512 176.34 11.6283 173.44
RightUpLeg  -9.79888 -20.9204 -12.9911
RightLeg  18.276 1.5722 1.22253
RightFoot  -2.4398 -0.163198 2.00024
RightToes  -6.98493e-010 0 -3.6325e-017
Spine  10.002 -1.62473 8.7002
Spine1  10.532 0.313388 -4.30449
HEad  -14.3631 -17.8 4.22905
LeftShoulder1  0.463996 2.16988 -28.655
LeftArm  -17.4476 17.5521 -33.5166
LeftForeArm  57.8537 -78.7478 -80.8499
LeftHand  -0.0917026 2.59978 3.31677
RightShoulder  -0.319635 -4.52265 24.2558
RightArm  -3.28846 18.1802 44.4828
RightForeArm  18.5533 74.313 45.4138
RightHand  -0.0468514 0.222737 -1.00072
LeftUpLeg  -6.34005 0.994048 4.94786
LeftLeg  21.5721 0.300561 0.460948
LeftFoot  -6.24549 0.251821 -4.80814
LeftToes  7.91257e-010 -1.64976e-010 -3.02228e-011
250
root  0.0414184 39.7999 28.3611 176.361 11.2228 173.247
RightUpLeg  -8.04056 -19.1456 -12.6687
RightLeg  15.9225 -0.74721 1.27882
RightFoot  -2.1726 -0.136578 1.6075
RightToes  -6.98493e-010 0 -3.6325e-017
Spine  8.9692 -1.46508 8.35616
Spine1  10.7117 0.334589 -4.17025
HEad  -14.1569 -17.7749 3.75777
LeftShoulder1  0.430583 2.26803 -28.7123
LeftArm  -16.4595 17.3239 -33.5026
LeftForeArm  58.4954 -78.7687 -81.3366
LeftHand  -0.100218 2.47322 3.55545
RightShoulder  -0.286556 -4.42059 24.0507
RightArm  -4.39454 16.1448 44.1733
RightForeArm  22.2025 75.0845 48.4741
RightHand  -0.0240767 -0.234028 -0.507463
LeftUpLeg  -5.49337 0.457417 1.49925
LeftLeg  19.781 -1.02614 -0.0892825
LeftFoot  -8.03472 0.181053 -4.68891
LeftToes  7.91257e-010 -1.64976e-010 -3.02228e-011
251
root  0.653265 39.9499 28.2805 176.43 10.6273 173.397
RightUpLeg  -6.50345 -17.6552 -12.027
RightLeg  14.0573 -2.88148 1.45514
RightFoot  -2.15867 -0.115507 1.30181
RightToes  -6.98493e-010 0 -3.6325e-017
Spine  7.95192 -1.20533 7.84645
Spine1  10.8064 0.274023 -3.39854
HEad  -13.4831 -17.5663 2.91102
LeftShoulder1  0.465863 2.17611 -28.9708
LeftArm  -15.6944 16.825 -33.508
LeftForeArm  59.3804 -78.7995 -81.8067
LeftHand  -0.0967143 2.36462 3.28795
RightShoulder  -0.354958 -4.63189 24.4448
RightArm  -5.23198 14.428 43.1257
RightForeArm  25.1715 75.6445 51.0938
RightHand  -0.00990812 -0.671369 -0.152191
LeftUpLeg  -4.32549 -0.370451 -1.53289
LeftLeg  16.781 -2.38076 -0.456242
LeftFoot  -9.29927 0.157675 -5.65024
LeftToes  7.91257e-010 -1.64976e-010 -3.02228e-011
252
root  1.25229 40.0279 28.2186 176.359 9.90433 173.811
RightUpLeg  -5.17349 -17.1273 -11.114
RightLeg  12.9717 -4.16935 1.68279
RightFoot  -2.44139 -0.0907326 0.946514
RightToes  -6.98493e-010 0 -3.6325e-017
Spine  7.41328 -1.09851 7.02395
Spine1  10.5443 0.00931285 -2.50538
HEad  -13.5038 -16.3841 3.11582
LeftShoulder1  0.451509 2.21254 -28.8397
LeftArm  -14.9549 16.1589 -33.675
LeftForeArm  59.5317 -78.8035 -81.9815
LeftHand  -0.0807286 2.6268 2.88972
RightShoulder  -0.393287 -4.74889 24.6189
RightArm  -5.88865 12.581 42.4225
RightForeArm  28.3978 76.3121 55.0025
RightHand  -0.0373971 -0.414365 -0.832799
LeftUpLeg  -2.92015 -0.613918 -3.77221
LeftLeg  13.2366 -4.91883 -0.775499
LeftFoot  -10.0012 0.13128 -5.83743
LeftToes  7.91257e-010 -1.64976e-010 -3.02228e-011
253
root  1.83365 40.0055 28.1639 176.228 9.63184 174.655
RightUpLeg  -4.60461 -18.1285 -9.66869
RightLeg  13.4331 -3.14935 1.82066
RightFoot  -3.23393 -0.0873261 0.919768
RightToes  -6.98493e-010 0 -3.6325e-017
Spine  6.77642 -0.924526 6.01453
Spine1  10.7241 -0.23184 -1.4209
HEad  -12.8636 -15.6503 2.97586
LeftShoulder1  0.403625 2.33705 -28.4581
LeftArm  -14.8154 15.5751 -34.0831
LeftForeArm  61.0805 -78.8416 -83.4765
LeftHand  -0.0817554 2.12317 2.51432
RightShoulder  -0.407894 -4.77004 25.2798
RightArm  -6.37098 11.7133 41.3674
RightForeArm  30.5919 76.6812 57.5079
RightHand  -0.0273961 -0.305147 -0.585051
LeftUpLeg  -1.61689 0.0188133 -4.88846
LeftLeg  10.1082 -8.21719 -0.86421
LeftFoot  -9.68468 0.104509 -4.81811
LeftToes  7.91257e-010 -1.64976e-010 -3.02228e-011
254
root  2.41574 39.9345 28.1845 175.87 9.11224 175.605
RightUpLeg  -4.4998 -22.3903 -8.04107
RightLeg  15.1469 0.867092 1.77833
RightFoot  -4.1306 -0.106617 1.25719
RightToes  -6.98493e-010 0 -3.6325e-017
Spine  6.98292 -0.872278 3.86218
Spine1  10.2543 -0.882641 0.411166
HEad  -13.5853 -13.9213 4.23309
LeftShoulder1  0.396877 2.34196 -28.0316
LeftArm  -14.8867 15.4842 -34.8077
LeftForeArm  65.9722 -78.9403 -87.449
LeftHand  -0.0596916 2.4119 1.84104
RightShoulder  -0.402889 -4.74214 25.5304
RightArm  -6.68876 11.2208 40.7871
RightForeArm  31.0529 76.7569 58.0798
RightHand  -0.0156122 -0.792505 -0.289901
LeftUpLeg  -1.24998 0.313522 -5.04155
LeftLeg  9.49761 -10.2848 -0.681666
LeftFoot  -6.91308 -0.015334 1.70436
LeftToes  7.91257e-010 -1.64976e-010 -3.02228e-011
255
root  3.00856 39.7189 28.3133 175.519 8.86992 176.648
RightUpLeg  -6.64038 -26.9717 -6.17246
RightLeg  20.7337 6.10541 2.17357
RightFoot  -5.18757 -0.165806 2.4528
RightToes  -6.98493e-010 0 -3.6325e-017
Spine  7.72793 -0.72093 1.032
Spine1  9.59239 -1.55593 2.67738
HEad  -13.5161 -12.6089 5.77511
LeftShoulder1  0.435139 2.21561 -27.6191
LeftArm  -14.8961 15.0183 -35.0729
LeftForeArm  69.6265 -78.9321 -91.5163
LeftHand  -0.0982406 2.36645 3.37847
RightShoulder  -0.5078 -5.0279 26.5182
RightArm  -6.70063 11.8694 39.8413
RightForeArm  29.0935 76.5585 57.0032
RightHand  -0.0255763 -0.552383 -0.544941
LeftUpLeg  -2.33686 -0.199454 -3.33179
LeftLeg  12.555 -9.99568 -0.681694
LeftFoot  -6.2274 -0.101251 3.08573
LeftToes  7.91257e-010 -1.64976e-010 -3.02228e-011
256
root  3.528 39.4233 28.4881 174.957 9.15723 176.428
RightUpLeg  -10.8441 -27.43 -6.79357
RightLeg  30.4335 9.01695 5.4982
RightFoot  -5.12832 -0.387963 6.42697
RightToes  -6.98493e-010 0 -3.6325e-017
Spine  8.6716 -0.481136 -2.62963
Spine1  9.20612 -2.09706 4.6008
HEad  -13.1061 -11.6694 5.80658
LeftShoulder1  0.404892 2.29636 -27.4046
LeftArm  -14.9432 14.0604 -34.9789
LeftForeArm  71.5657 -78.9183 -93.4274
LeftHand  -0.0923915 2.46206 3.21945
RightShoulder  -0.483881 -4.95812 26.4258
RightArm  -6.9333 12.569 40.4245
RightForeArm  26.0116 76.0576 53.8284
RightHand  -0.0243739 -0.365921 -0.519776
LeftUpLeg  -3.63071 0.942551 -1.87046
LeftLeg  16.1903 -11.2501 -2.49388
LeftFoot  -8.1864 0.0182754 1.0816
LeftToes  7.91257e-010 -1.64976e-010 -3.02228e-011
257
root  4.03065 39.1133 28.628 173.692 10.4357 175.726
RightUpLeg  -14.1528 -26.567 -9.09869
RightLeg  40.2154 13.7429 11.9673
RightFoot  -4.16721 -1.06696 16.2469
RightToes  -6.98493e-010 0 -3.6325e-017
Spine  9.72828 0.0878291 -4.67285
Spine1  9.32257 -1.65072 3.95776
HEad  -13.2187 -10.4241 6.39616
LeftShoulder1  0.470274 2.07953 -26.841
LeftArm  -14.57 12.4553 -34.5516
LeftForeArm  69.8937 -78.9185 -91.9931
LeftHand  -0.0837716 2.54195 2.93097
RightShoulder  -0.451336 -4.86927 26.1672
RightArm  -7.77074 12.4882 41.4797
RightForeArm  25.4451 75.785 51.9601
RightHand  0.00459742 -0.132865 0.121761
LeftUpLeg  -3.74022 1.77676 -1.37012
LeftLeg  19.0725 -10.8904 -3.19261
LeftFoot  -9.98363 0.0617235 0.0543347
LeftToes  7.91257e-010 -1.64976e-010 -3.02228e-011
